<?xml version="1.0" encoding="utf-8"?>
<!-- Generator: Adobe Illustrator 27.5.0, SVG Export Plug-In . SVG Version: 6.00 Build 0)  -->
<svg version="1.1" xmlns="http://www.w3.org/2000/svg" xmlns:xlink="http://www.w3.org/1999/xlink" x="0px" y="0px"
	 viewBox="0 0 500 500" style="enable-background:new 0 0 500 500;" xml:space="preserve">
<g id="Background_Complete">
	<g>
		<rect y="382.398" style="fill:#EBEBEB;" width="500" height="0.25"/>
		<rect x="104.545" y="389.208" style="fill:#EBEBEB;" width="33.122" height="0.25"/>
		<rect x="171.14" y="398.369" style="fill:#EBEBEB;" width="40.749" height="0.25"/>
		<rect x="52.459" y="395.236" style="fill:#EBEBEB;" width="51.085" height="0.25"/>
		<rect x="356.762" y="390.888" style="fill:#EBEBEB;" width="93.14" height="0.25"/>
		<rect x="341.525" y="390.888" style="fill:#EBEBEB;" width="6.333" height="0.25"/>
		<rect x="277.213" y="395.111" style="fill:#EBEBEB;" width="42.231" height="0.25"/>
		<path style="fill:#EBEBEB;" d="M237.014,337.8H43.915c-3.147,0-5.708-2.561-5.708-5.708V60.66c0-3.147,2.561-5.708,5.708-5.708
			h193.099c3.146,0,5.707,2.561,5.707,5.708v271.432C242.721,335.239,240.16,337.8,237.014,337.8z M43.915,55.203
			c-3.01,0-5.458,2.448-5.458,5.458v271.432c0,3.01,2.448,5.458,5.458,5.458h193.099c3.009,0,5.457-2.448,5.457-5.458V60.66
			c0-3.009-2.448-5.458-5.457-5.458H43.915z"/>
		<path style="fill:#EBEBEB;" d="M453.31,337.8H260.212c-3.147,0-5.707-2.561-5.707-5.708V60.66c0-3.147,2.561-5.708,5.707-5.708
			H453.31c3.148,0,5.708,2.561,5.708,5.708v271.432C459.019,335.239,456.458,337.8,453.31,337.8z M260.212,55.203
			c-3.009,0-5.457,2.448-5.457,5.458v271.432c0,3.01,2.448,5.458,5.457,5.458H453.31c3.01,0,5.458-2.448,5.458-5.458V60.66
			c0-3.009-2.448-5.458-5.458-5.458H260.212z"/>
	</g>
	<g>
		<g>
			<g>
				<g>
					<rect x="363.449" y="127.841" style="fill:#E0E0E0;" width="64.263" height="102.232"/>
					<rect x="365.142" y="127.841" style="fill:#F5F5F5;" width="66.446" height="102.232"/>
					
						<rect x="354.703" y="151.301" transform="matrix(6.123234e-17 -1 1 6.123234e-17 219.407 577.3216)" style="fill:#FFFFFF;" width="87.323" height="55.313"/>
				</g>
			</g>
		</g>
		<g>
			<g>
				<g>
					<rect x="353.202" y="276.383" style="fill:#F0F0F0;" width="18.517" height="103.039"/>
					<rect x="356.757" y="379.422" style="fill:#F0F0F0;" width="81.522" height="2.977"/>
					
						<rect x="371.719" y="276.383" transform="matrix(-1 -1.224647e-16 1.224647e-16 -1 813.5538 655.8041)" style="fill:#F5F5F5;" width="70.115" height="103.039"/>
					<path style="fill:#EBEBEB;" d="M433.55,283.16v41.44H380v-41.44h4.623c0.56,4.255,4.242,7.57,8.627,7.57h27.05
						c4.391,0,8.076-3.315,8.637-7.57H433.55 M434.55,282.16h-6.54c-0.07,4.19-3.49,7.57-7.71,7.57h-27.05
						c-4.21,0-7.63-3.38-7.7-7.57H379v43.44h55.55V282.16L434.55,282.16z"/>
					<path style="fill:#EBEBEB;" d="M433.55,331.2v41.44H380V331.2h4.625c0.569,4.255,4.249,7.57,8.625,7.57h27.05
						c4.381,0,8.066-3.315,8.635-7.57H433.55 M434.55,330.2h-6.54c-0.08,4.2-3.5,7.57-7.71,7.57h-27.05c-4.2,0-7.62-3.37-7.7-7.57
						H379v43.44h55.55V330.2L434.55,330.2z"/>
				</g>
			</g>
			<g>
				<g>
					<rect x="277.59" y="276.383" style="fill:#F0F0F0;" width="18.517" height="103.039"/>
					<rect x="281.145" y="379.422" style="fill:#F0F0F0;" width="81.522" height="2.977"/>
					
						<rect x="296.107" y="276.383" transform="matrix(-1 -1.224647e-16 1.224647e-16 -1 662.33 655.8041)" style="fill:#F5F5F5;" width="70.115" height="103.039"/>
					<path style="fill:#EBEBEB;" d="M357.94,283.16v41.44h-53.55v-41.44h4.613c0.561,4.255,4.246,7.57,8.637,7.57h27.05
						c4.391,0,8.076-3.315,8.637-7.57H357.94 M358.94,282.16h-6.54c-0.07,4.19-3.49,7.57-7.71,7.57h-27.05
						c-4.22,0-7.64-3.38-7.71-7.57h-6.54v43.44h55.55V282.16L358.94,282.16z"/>
					<path style="fill:#EBEBEB;" d="M357.94,331.2v41.44h-53.55V331.2h4.615c0.569,4.255,4.254,7.57,8.635,7.57h27.05
						c4.381,0,8.066-3.315,8.635-7.57H357.94 M358.94,330.2h-6.54c-0.08,4.2-3.5,7.57-7.71,7.57h-27.05c-4.21,0-7.63-3.37-7.71-7.57
						h-6.54v43.44h55.55V330.2L358.94,330.2z"/>
				</g>
			</g>
		</g>
		<g>
			<rect x="216.771" y="275.414" style="fill:#E6E6E6;" width="9.61" height="106.982"/>
			<rect x="222.74" y="275.414" style="fill:#F0F0F0;" width="6.674" height="106.982"/>
			
				<rect x="136.396" y="275.414" transform="matrix(-1 -1.224647e-16 1.224647e-16 -1 365.8095 562.6362)" style="fill:#F0F0F0;" width="93.018" height="11.808"/>
			<rect x="130.074" y="287.222" style="fill:#E6E6E6;" width="9.61" height="95.174"/>
			<rect x="136.043" y="287.222" style="fill:#F0F0F0;" width="6.674" height="95.174"/>
			<rect x="61.667" y="287.222" style="fill:#E6E6E6;" width="9.61" height="95.174"/>
			<rect x="67.635" y="287.222" style="fill:#F0F0F0;" width="6.674" height="95.174"/>
			<rect x="155.955" y="287.222" style="fill:#E6E6E6;" width="9.61" height="95.174"/>
			<rect x="161.924" y="287.222" style="fill:#F0F0F0;" width="6.674" height="95.174"/>
			<rect x="61.667" y="275.414" style="fill:#E6E6E6;" width="74.729" height="11.808"/>
		</g>
		<g>
			<g>
				<rect x="74.471" y="79.414" style="fill:#E0E0E0;" width="234.33" height="130.456"/>
				<rect x="75.654" y="79.414" style="fill:#F5F5F5;" width="246.015" height="130.456"/>
				
					<rect x="137.453" y="25.653" transform="matrix(-1.836970e-16 1 -1 -1.836970e-16 343.3029 -54.0202)" style="fill:#FFFFFF;" width="122.417" height="237.976"/>
				<polygon style="fill:#F5F5F5;" points="176.028,205.85 220.958,83.433 146.808,83.433 101.878,205.85 				"/>
				<polygon style="fill:#F5F5F5;" points="247.403,205.85 292.333,83.433 236.397,83.433 191.467,205.85 				"/>
			</g>
		</g>
		<g>
			<polygon style="fill:#E6E6E6;" points="84.599,252.146 84.599,254.777 86.284,254.777 87.674,275.414 108.17,275.414 
				109.559,254.777 111.244,254.777 111.244,252.146 			"/>
			<path style="fill:#E6E6E6;" d="M90.635,201.193c-0.326-11.53,10.588-12.887,24.92-10.786c13.638,1.999,17.17-3.995,17.17-3.995
				s3.407,27.387-15.069,33.836C100.112,226.372,90.962,212.742,90.635,201.193z"/>
			<path style="fill:#E6E6E6;" d="M97.811,218.072c-2.725-4.024-11.084-7.807-17.703,5.138c-4.786,9.361-10.836,5.861-10.836,5.861
				s11.013,16.409,23.677,11.266C104.975,235.453,102.603,225.147,97.811,218.072z"/>
			<path style="fill:#E6E6E6;" d="M101.203,236.916c0.664-3.292,4.985-7.931,12.655-1.444c5.546,4.691,8.47,0.848,8.47,0.848
				s-2.646,13.396-12.09,13.494C101.27,249.906,100.035,242.704,101.203,236.916z"/>
			<path style="fill:#E6E6E6;" d="M97.149,259.894c-0.213,0-0.424-0.09-0.572-0.265c-1.408-1.664-0.256-5.648,1.338-11.163
				c2.045-7.077,4.591-15.884,2.435-22.28c-1.217-3.61-2.722-6.794-4.178-9.872c-3.048-6.446-5.68-12.013-3.485-17.827
				c0.146-0.387,0.578-0.582,0.965-0.436c0.387,0.146,0.582,0.578,0.436,0.965c-1.971,5.219,0.416,10.267,3.438,16.657
				c1.405,2.972,2.998,6.341,4.243,10.034c2.306,6.84-0.312,15.897-2.415,23.174c-1.24,4.291-2.523,8.728-1.633,9.78
				c0.267,0.316,0.228,0.788-0.088,1.055C97.492,259.836,97.32,259.894,97.149,259.894z"/>
		</g>
	</g>
</g>
<g id="Background_Simple" style="display:none;">
	<g style="display:inline;">
		<path style="fill:#407BFF;" d="M252.429,167.88c8.836-0.007,17.005-1.739,25.289-2.549c12.944-1.265,27.457-0.474,42.066,2.295
			c18.758,3.556,40.406,11.743,58.228,29.34c14.568,14.385,23.436,32.183,27.958,48.559c5.119,18.535,5.424,35.985,2.816,51.242
			c-2.148,12.571-6.359,24.089-13.312,33.019c-31.236,36.498-153.742,24.091-185.195,11.393
			C110.215,309.684,53.766,173.918,71.216,118.944c6.171-19.443,23.254-32.156,47.395-29.118
			c19.259,2.424,42.027,14.706,60.544,31.572c18.927,17.238,34.554,37.651,57.081,44.236
			C241.959,167.308,247.306,167.884,252.429,167.88z"/>
		<path style="opacity:0.9;fill:#FFFFFF;" d="M252.429,167.88c8.836-0.007,17.005-1.739,25.289-2.549
			c12.944-1.265,27.457-0.474,42.066,2.295c18.758,3.556,40.406,11.743,58.228,29.34c14.568,14.385,23.436,32.183,27.958,48.559
			c5.119,18.535,5.424,35.985,2.816,51.242c-2.148,12.571-6.359,24.089-13.312,33.019c-31.236,36.498-153.742,24.091-185.195,11.393
			C110.215,309.684,53.766,173.918,71.216,118.944c6.171-19.443,23.254-32.156,47.395-29.118
			c19.259,2.424,42.027,14.706,60.544,31.572c18.927,17.238,34.554,37.651,57.081,44.236
			C241.959,167.308,247.306,167.884,252.429,167.88z"/>
	</g>
</g>
<g id="Shadow_1_">
	<ellipse id="_x3C_Path_x3E__290_" style="fill:#F5F5F5;" cx="250" cy="416.238" rx="193.889" ry="11.323"/>
</g>
<g id="Character_1_">
	<g>
		<path style="fill:#407BFF;" d="M158.884,408.538c0.979,0.33,1.97,0.513,2.432,0.179c0.162-0.117,0.335-0.35,0.245-0.797
			c-0.05-0.25-0.196-0.458-0.433-0.617c-1.156-0.774-4.324-0.149-4.458-0.122c-0.077,0.016-0.137,0.078-0.149,0.157
			c-0.012,0.079,0.025,0.157,0.094,0.197C157.069,407.796,157.971,408.23,158.884,408.538z M160.582,407.462
			c0.127,0.043,0.241,0.095,0.336,0.159c0.152,0.102,0.24,0.224,0.271,0.373c0.054,0.268-0.029,0.364-0.097,0.412
			c-0.518,0.375-2.45-0.263-3.803-0.942C158.116,407.338,159.69,407.161,160.582,407.462z"/>
		<path style="fill:#407BFF;" d="M156.648,407.55c0.025,0.008,0.052,0.012,0.079,0.009c1.057-0.104,3.425-1.144,3.57-2.056
			c0.034-0.214-0.027-0.515-0.507-0.733c-0.358-0.163-0.728-0.171-1.104-0.027c-1.234,0.472-2.116,2.464-2.154,2.548
			c-0.027,0.062-0.019,0.134,0.021,0.189C156.578,407.513,156.611,407.537,156.648,407.55z M159.529,405.076
			c0.036,0.012,0.071,0.026,0.107,0.042c0.314,0.142,0.293,0.278,0.286,0.322c-0.087,0.547-1.754,1.43-2.88,1.679
			c0.296-0.569,0.973-1.71,1.783-2.02C159.068,405.007,159.3,404.999,159.529,405.076z"/>
		<path style="fill:#263238;" d="M155.789,407.083h-8.793c-0.329,0-0.586,0.229-0.617,0.55l-0.696,7.157
			c-0.072,0.742,0.579,1.445,1.337,1.432c3.165-0.054,7.726-0.24,11.712-0.24c4.662,0,4.998,0.254,10.465,0.254
			c3.306,0,3.805-3.342,2.384-3.645c-6.471-1.378-7.911-1.526-13.775-4.882C157.17,407.346,156.484,407.083,155.789,407.083z"/>
		<path style="fill:#407BFF;" d="M115.898,409.017c1.034,0,2.052-0.142,2.455-0.607c0.141-0.163,0.274-0.439,0.106-0.834
			c-0.093-0.221-0.275-0.371-0.539-0.446c-1.287-0.364-4.336,1.239-4.465,1.308c-0.074,0.04-0.123,0.118-0.122,0.196
			c0.001,0.078,0.053,0.141,0.128,0.156C113.961,408.894,114.936,409.017,115.898,409.017z M117.405,407.456
			c0.134,0,0.257,0.014,0.362,0.044c0.169,0.048,0.278,0.135,0.334,0.267c0.1,0.237,0.034,0.354-0.025,0.422
			c-0.451,0.52-2.488,0.533-3.954,0.321C114.925,408.125,116.464,407.456,117.405,407.456z"/>
		<path style="fill:#407BFF;" d="M113.499,408.795c0.027,0,0.054-0.006,0.081-0.017c1.036-0.436,3.217-2.178,3.203-3.088
			c-0.003-0.214-0.116-0.48-0.632-0.533c-0.385-0.04-0.755,0.071-1.106,0.327c-1.148,0.841-1.683,3.01-1.706,3.102
			c-0.016,0.067,0.004,0.134,0.053,0.173C113.422,408.783,113.46,408.795,113.499,408.795z M115.943,405.53
			c0.037,0,0.076,0.002,0.114,0.006c0.338,0.035,0.34,0.17,0.34,0.214c0.008,0.546-1.501,1.915-2.58,2.511
			c0.196-0.633,0.674-1.931,1.427-2.483C115.471,405.612,115.701,405.53,115.943,405.53z"/>
		<path style="fill:#263238;" d="M110.894,407.083h-8.793c-0.329,0-0.621,0.229-0.702,0.55L99.6,414.79
			c-0.187,0.742,0.356,1.445,1.117,1.432c3.174-0.054,7.763-0.24,11.749-0.24c4.662,0,2.823,0.254,8.29,0.254
			c3.306,0,4.32-3.342,2.946-3.645c-6.259-1.378-5.541-1.526-10.886-4.882C112.234,407.346,111.589,407.083,110.894,407.083z"/>
		<path style="fill:#407BFF;" d="M149.84,203.197c0,0-9.342,61.849-12.962,84.808c-3.352,21.264-17.068,90.733-21.535,112.201
			c-0.306,1.473-0.384,2.837-1.176,3.98c1.061,1.365,0.224,4.22,0.224,4.22l-14.045,1.419c0,0-1.359-1.427-1.015-3.987
			c0.136-1.014,1.461-2.886,1.732-6.173c1.786-21.656,9.746-80.984,11.767-109.811c1.896-27.041,9.219-86.658,9.219-86.658H149.84z"
			/>
		<path style="opacity:0.3;" d="M141.882,234c-9.333,6.667-6.874,34.93-5.298,55.891c0.096-0.664,0.207-1.294,0.297-1.889
			c1.975-12.535,5.652-36.69,8.589-56.025C144.965,231.816,142.356,233.661,141.882,234z"/>
		<path style="fill:#407BFF;" d="M165.118,203.197c0,0-0.596,60.203-1.292,84.758c-0.616,21.719-0.674,92.62-5.107,112.816
			c-0.453,2.062,0.597,2.464,0.401,3.285c-0.074,0.311-0.125,0.598-0.159,0.859c-0.144,1.125-1.005,2.023-2.112,2.273l-10.259,2.317
			c-0.904,0.204-1.823-0.329-2.059-1.226c-0.234-0.892-0.431-2.217-0.377-4.093c0.032-1.118,0.528-3.469,0.456-4.818
			c-1.35-25.358-4.721-89.501-5.35-109.464c-0.862-27.345-2.453-86.708-2.453-86.708H165.118z"/>
		<path style="fill:#FFC3BD;" d="M126.465,145.436c-1.454,2.7-2.972,5.565-4.418,8.368c-1.458,2.818-2.879,5.655-4.245,8.493
			c-0.681,1.42-1.351,2.845-1.986,4.272c-0.658,1.422-1.279,2.847-1.873,4.275c-1.162,2.854-2.265,5.709-3.075,8.491l-4.634-6.756
			c0.884,0.184,1.778,0.411,2.681,0.473c0.907,0.101,1.824,0.109,2.764,0.04c0.946-0.046,1.899-0.224,2.868-0.459
			c0.485-0.12,0.969-0.26,1.451-0.422c0.233-0.082,0.483-0.161,0.707-0.252l0.341-0.122l0.157-0.054
			c0.046-0.013,0.108-0.043,0.1-0.004c1.157-1.203,3.071-1.241,4.274-0.084c1.204,1.157,1.241,3.071,0.084,4.274l-0.432,0.583
			c-0.126,0.169-0.25,0.335-0.377,0.485c-0.256,0.314-0.52,0.596-0.788,0.891c-0.55,0.551-1.123,1.088-1.741,1.566
			c-1.232,0.963-2.598,1.785-4.07,2.413c-1.473,0.601-3.03,1.118-4.631,1.341c-1.601,0.277-3.219,0.329-4.828,0.254
			c-2.819-0.132-4.999-2.524-4.867-5.344c0.013-0.276,0.047-0.546,0.102-0.808l0.131-0.605c0.759-3.533,1.77-6.839,2.909-10.066
			c1.12-3.232,2.406-6.339,3.744-9.418c1.326-3.082,2.783-6.079,4.272-9.058c1.517-2.986,3.044-5.869,4.789-8.832
			c1.711-2.904,5.452-3.871,8.356-2.16c2.833,1.669,3.822,5.27,2.281,8.141L126.465,145.436z"/>
		<path style="fill:#FFC3BD;" d="M116.08,172.517l4.722-3.651l3.966,8.379c0,0-3.89,2.397-7.521,0.967L116.08,172.517z"/>
		<polygon style="fill:#FFC3BD;" points="127.711,164.199 129.728,172.185 124.768,177.245 120.802,168.866 		"/>
		<path style="fill:#263238;" d="M156.791,106.105c-0.054,0.647,0.246,1.202,0.669,1.24c0.423,0.038,0.81-0.455,0.863-1.102
			c0.054-0.647-0.246-1.202-0.669-1.24C157.231,104.964,156.845,105.458,156.791,106.105z"/>
		<path style="fill:#ED847E;" d="M156.978,107.301c0,0,1.162,3.865,2.633,5.811c-1.234,0.965-3.14,0.301-3.14,0.301L156.978,107.301
			z"/>
		<path style="fill:#FFC3BD;" d="M198.008,143.789l-0.379-9.123l-9.595,2.729c0,0,0.241,4.682,4.762,7.699L198.008,143.789z"/>
		<polygon style="fill:#FFC3BD;" points="194.345,128.063 186.121,132.622 188.034,137.396 197.629,134.667 		"/>
		<g>
			<path style="fill:#407BFF;" d="M194.186,123.341h-8.804c-0.443,0-0.841,0.363-0.883,0.806l-1.628,16.944
				c-0.043,0.443,0.285,0.806,0.728,0.806h8.804c0.443,0,0.841-0.363,0.883-0.806l1.628-16.944
				C194.957,123.704,194.629,123.341,194.186,123.341z"/>
			<path style="fill:#407BFF;" d="M193.583,123.341h-8.804c-0.443,0-0.841,0.363-0.883,0.806l-1.628,16.944
				c-0.043,0.443,0.285,0.806,0.728,0.806h8.804c0.443,0,0.841-0.363,0.883-0.806l1.628-16.944
				C194.354,123.704,194.027,123.341,193.583,123.341z"/>
			<path style="fill:#FFFFFF;" d="M182.988,141.548c-0.111,0-0.21-0.04-0.277-0.115c-0.071-0.077-0.104-0.183-0.092-0.299
				l1.628-16.945c0.026-0.27,0.274-0.498,0.542-0.498h8.804c0.111,0,0.21,0.04,0.277,0.113c0.071,0.077,0.104,0.184,0.092,0.301
				l-1.628,16.944c-0.026,0.27-0.275,0.498-0.542,0.498H182.988z"/>
			<path style="fill:#407BFF;" d="M191.31,132.55c-0.165,1.749-1.651,3.198-3.319,3.236c-1.668,0.038-2.886-1.349-2.72-3.098
				c0.165-1.749,1.651-3.198,3.319-3.236C190.257,129.413,191.475,130.801,191.31,132.55z"/>
		</g>
		<path style="fill:#FFC3BD;" d="M196.139,137.207c-0.601-0.448-4.195-5.708-4.533-6.843c-0.954,0.239-1.601,1.703-1.234,2.809
			c0.367,1.106,1.777,3.995,1.777,3.995s-0.676,3.475,0.596,5.896C194.018,145.484,196.139,137.207,196.139,137.207z"/>
		<path style="fill:#263238;" d="M154.719,102.299c-0.089-0.027-0.169-0.085-0.22-0.171c-0.109-0.181-0.05-0.415,0.131-0.522
			c1.808-1.075,3.4-0.313,3.468-0.28c0.189,0.093,0.269,0.322,0.177,0.511c-0.092,0.188-0.322,0.264-0.508,0.174l0,0
			c-0.052-0.025-1.301-0.605-2.744,0.251C154.928,102.318,154.818,102.328,154.719,102.299z"/>
		<path style="fill:#FFC3BD;" d="M135.559,113.382c1.198,5.891,1.955,14.052-2.138,17.983c0,0,1.654,5.975,12.6,5.975
			c12.036,0,5.752-5.244,5.752-5.244c-5.014-1.553-5.012-7.251-3.901-11.828L135.559,113.382z"/>
		<path style="fill:#407BFF;" d="M131.197,135.304c-1.083-1.518-1.075-6.314,0.063-7.16c1.837-1.366,9.737-1.68,20.401,0.768
			c-1.112,4.645,1.36,7.081,1.36,7.081L131.197,135.304z"/>
		<g>
			<path style="fill:#263238;" d="M119.018,133.185c-7.534,1.73-12.595,21.867-12.595,21.867l14.22,10.68
				c0,0,5.524-5.244,7.929-14.881C131.091,140.753,126.721,131.416,119.018,133.185z"/>
			<path style="opacity:0.1;fill:#FFFFFF;" d="M119.018,133.185c-7.534,1.73-12.595,21.867-12.595,21.867l14.22,10.68
				c0,0,5.524-5.244,7.929-14.881C131.091,140.753,126.721,131.416,119.018,133.185z"/>
		</g>
		<path style="fill:#FFC3BD;" d="M163.432,138.98c4.137,4.61,8.081,9.282,12.047,13.819c1.97,2.275,3.956,4.507,5.957,6.63
			c1.976,2.111,4.051,4.182,5.954,5.669c0.462,0.363,0.914,0.687,1.262,0.9c0.33,0.221,0.629,0.303,0.312,0.259
			c-0.157-0.008-0.542-0.042-1.134,0.126c-0.285,0.082-0.609,0.229-0.892,0.404c-0.266,0.162-0.593,0.468-0.537,0.433
			c-0.093,0.158,0.132-0.038,0.331-0.383c0.451-0.693,0.926-1.891,1.308-3.126c0.381-1.257,0.732-2.614,1.039-4.007
			c1.189-5.599,1.968-11.675,2.703-17.613l6.044-0.145c0.878,6.321,1.253,12.542,0.8,19.103c-0.124,1.643-0.297,3.311-0.625,5.038
			c-0.342,1.739-0.729,3.508-1.644,5.566c-0.486,1.022-1.078,2.15-2.264,3.388c-0.214,0.235-0.832,0.798-1.429,1.152
			c-0.604,0.384-1.291,0.673-1.944,0.854c-1.333,0.37-2.502,0.332-3.414,0.208c-1.837-0.282-2.962-0.83-3.982-1.326
			c-1.003-0.513-1.831-1.04-2.614-1.571c-3.049-2.14-5.394-4.358-7.733-6.597c-2.299-2.25-4.46-4.539-6.58-6.834
			c-4.21-4.608-8.208-9.286-12.148-13.907L163.432,138.98z"/>
		<path style="opacity:0.4;fill:#263238;" d="M125.59,147.353c-4.07,4.056-5.353,11.443-5.623,17.866l0.672,0.515
			c0,0,5.53-5.25,7.936-14.885c0.149-0.603,0.276-1.206,0.381-1.798L125.59,147.353z"/>
		<path style="fill:#407BFF;" d="M105.873,153.956l-0.292,0.778c-0.169,0.451-0.02,0.961,0.366,1.253l13.6,10.289
			c0.469,0.355,1.133,0.276,1.499-0.178l0.054-0.066c0.374-0.463,0.302-1.143-0.16-1.524l-13.362-11.001
			C107.002,153.032,106.134,153.26,105.873,153.956z"/>
		<g>
			<path style="fill:#263238;" d="M166.767,141.259c1.709,8.699,3.212,39.373-1.308,74.749h-45.834
				c-0.345-6.611,5.998-51.672-0.606-82.822c0,0,7.371-1.482,14.404-1.821c5.501-0.265,13.467-0.441,18.308,0.001
				c2.021,0.184,4.005,0.476,5.773,0.788C162.166,132.978,165.854,136.612,166.767,141.259z"/>
			<path style="opacity:0.1;fill:#FFFFFF;" d="M166.767,141.259c1.709,8.699,3.212,39.373-1.308,74.749h-45.834
				c-0.345-6.611,5.998-51.672-0.606-82.822c0,0,7.371-1.482,14.404-1.821c5.501-0.265,13.467-0.441,18.308,0.001
				c2.021,0.184,4.005,0.476,5.773,0.788C162.166,132.978,165.854,136.612,166.767,141.259z"/>
		</g>
		<path style="opacity:0.4;fill:#263238;" d="M168.002,152.998l-7.066,1.689c-0.413,5.325,3.946,11.49,7.505,15.577
			C168.467,163.626,168.295,157.785,168.002,152.998z"/>
		<path style="fill:#FFC3BD;" d="M135.316,102.785c-0.171,7.988-0.677,12.652,2.999,17.091c5.53,6.678,15.644,3.926,18.199-3.833
			c2.299-6.983,2.193-18.873-5.326-22.737C143.781,89.501,135.487,94.797,135.316,102.785z"/>
		<path style="fill:#263238;" d="M152.581,108.759c0,0,3.167,2.554,3.227-1.458c0.06-4.012-0.434-5.739-0.434-5.739
			s2.054-0.135,1.875-3.542c-0.179-3.407-5.391-8.537-13.516-7.282c-8.126,1.255-7.588,5.319-7.588,5.319s-7.53,0.478-3.287,12.701
			c3.085,8.887,3.553,10.516,3.553,10.516s7.504,1.586,9.177-0.147C147.262,117.394,149.414,107.655,152.581,108.759z"/>
		<g>
			<path style="fill:#407BFF;" d="M133.826,101.033c-7.806,3.952-14.187,10.285,1.888,10.266
				c16.076-0.02,20.154-12.013,20.154-12.013L133.826,101.033z"/>
			<path style="opacity:0.2;fill:#FFFFFF;" d="M133.826,101.033c-7.806,3.952-14.187,10.285,1.888,10.266
				c16.076-0.02,20.154-12.013,20.154-12.013L133.826,101.033z"/>
		</g>
		<path style="fill:#407BFF;" d="M157.557,97.791c-1.022,1.865-5.231,5.379-8.062,6.993c-2.831,1.614-8.622,2.178-10.84,2.092
			c-2.218-0.086-6.873-0.598-7.471-2.092c-0.598-1.494-0.525-5.977-0.332-8.905c0.192-2.928,8.149-8.008,11.313-8.666
			c3.164-0.657,9.981,1.315,12.009,3.108C156.202,92.114,157.557,97.791,157.557,97.791z"/>
		<path style="fill:#FFC3BD;" d="M148.137,107.014c-0.04,2.089,0.773,4.128,1.837,5.507c1.6,2.074,3.524,1.032,4.02-1.285
			c0.447-2.086,0.153-5.678-1.906-6.922C150.06,103.089,148.183,104.625,148.137,107.014z"/>
		<g>
			<path style="fill:#263238;" d="M149.908,143.9c-3.785,10.405,19.712,23.013,19.712,23.013l9.003-12.977
				c0,0-6.646-13.039-14.73-18.917C153.909,127.758,152.789,135.979,149.908,143.9z"/>
			<path style="opacity:0.1;fill:#FFFFFF;" d="M149.908,143.9c-3.785,10.405,19.712,23.013,19.712,23.013l9.003-12.977
				c0,0-6.646-13.039-14.73-18.917C153.909,127.758,152.789,135.979,149.908,143.9z"/>
		</g>
		<path style="fill:#407BFF;" d="M178.79,152.783l0.506,0.665c0.293,0.385,0.298,0.916,0.013,1.303l-9.073,12.312
			c-0.32,0.435-0.914,0.565-1.391,0.305l-0.136-0.074c-0.566-0.308-0.746-1.035-0.388-1.566l8.703-12.903
			C177.439,152.21,178.338,152.189,178.79,152.783z"/>
	</g>
</g>
<g id="Smartphone">
	<g>
		<path style="fill:#263238;" d="M381.702,113.754H241.227c-7.071,0-13.169,5.786-13.549,12.857l-14.553,270.372
			c-0.381,7.071,5.094,12.857,12.165,12.857h140.475c7.071,0,13.169-5.786,13.549-12.857l14.553-270.372
			C394.248,119.54,388.774,113.754,381.702,113.754z"/>
		<rect x="254.016" y="110.255" style="fill:#407BFF;" width="6.934" height="1"/>
		<path style="fill:#407BFF;" d="M224.696,119.395l-0.863-0.504c3.101-5.326,8.763-8.636,14.775-8.636h10.924v1h-10.924
			C232.95,111.255,227.62,114.374,224.696,119.395z"/>
		<path style="fill:#407BFF;" d="M379.083,113.754H238.608c-7.071,0-13.169,5.786-13.549,12.857l-14.553,270.372
			c-0.381,7.071,5.094,12.857,12.165,12.857h140.475c7.071,0,13.168-5.786,13.549-12.857l14.553-270.372
			C391.629,119.54,386.155,113.754,379.083,113.754z"/>
		<path style="fill:#FFFFFF;" d="M222.786,407.698c-5.907,0-10.455-4.807-10.137-10.714l14.553-270.372
			c0.318-5.908,5.383-10.714,11.291-10.714h140.475c5.908,0,10.456,4.807,10.138,10.714l-14.553,270.372
			c-0.318,5.908-5.384,10.714-11.291,10.714H222.786z"/>
		<path style="opacity:0.2;fill:#407BFF;" d="M228.761,221.504l4.285-79.609c0.17-3.167,2.876-5.734,6.043-5.734h137.102
			c3.167,0,5.596,2.567,5.425,5.734l-4.285,79.609c-0.17,3.167-2.876,5.734-6.043,5.734H234.186
			C231.019,227.238,228.59,224.671,228.761,221.504z"/>
		<path style="fill:#407BFF;" d="M312.424,125.838h-7.96c-2.226,0-4.098-1.486-4.576-3.631l-1.637-7.351h21.071l-1.838,7.037
			C316.884,124.19,314.771,125.838,312.424,125.838z"/>
		<path style="opacity:0.5;fill:#FFFFFF;" d="M311.11,120.347c-0.078,1.446-1.314,2.619-2.76,2.619
			c-1.446,0-2.556-1.173-2.478-2.619c0.078-1.447,1.314-2.619,2.76-2.619C310.078,117.728,311.188,118.9,311.11,120.347z"/>
		<g>
			<path style="fill:#407BFF;" d="M332.159,318.112h-67.761c-0.286,0-0.522-0.226-0.535-0.512l-2.162-47.849
				c-0.007-0.147,0.047-0.289,0.147-0.395c0.102-0.105,0.241-0.166,0.388-0.166h77.236c0.156,0,0.305,0.068,0.406,0.188
				c0.102,0.118,0.146,0.275,0.123,0.43l-7.314,47.849C332.648,317.919,332.424,318.112,332.159,318.112z M264.91,317.04h66.789
				l7.149-46.776h-76.052L264.91,317.04z"/>
			<path style="fill:#407BFF;" d="M328.785,327.778h-59.167c-0.296,0-0.536-0.24-0.536-0.536s0.24-0.536,0.536-0.536h59.167
				c0.863,0,1.636-0.675,1.758-1.536l8.949-59.391c0.039-0.262,0.265-0.456,0.529-0.456h3.851c0.296,0,0.536,0.24,0.536,0.536
				s-0.24,0.536-0.536,0.536h-3.39l-8.88,58.93C331.405,326.722,330.193,327.778,328.785,327.778z"/>
			<path style="fill:#407BFF;" d="M274.115,337.856c-1.493,0-2.868-0.583-3.87-1.641c-1.005-1.06-1.514-2.468-1.434-3.963
				c0.165-3.059,2.788-5.547,5.846-5.547c1.493,0,2.868,0.583,3.87,1.641c1.005,1.06,1.514,2.468,1.434,3.963
				C279.797,335.368,277.174,337.856,274.115,337.856z M274.657,327.778c-2.498,0-4.641,2.033-4.775,4.532
				c-0.064,1.198,0.341,2.324,1.141,3.168c0.798,0.842,1.896,1.306,3.093,1.306c2.499,0,4.642-2.032,4.775-4.531
				c0.065-1.199-0.341-2.325-1.141-3.169C276.952,328.242,275.853,327.778,274.657,327.778z"/>
			<path style="fill:#407BFF;" d="M325.69,337.856c-1.493,0-2.868-0.583-3.871-1.642c-1.004-1.06-1.513-2.467-1.432-3.963
				c0.164-3.058,2.787-5.546,5.846-5.546c1.493,0,2.868,0.583,3.871,1.642c1.004,1.06,1.512,2.467,1.432,3.962l0,0
				C331.372,335.368,328.749,337.856,325.69,337.856z M326.233,327.778c-2.499,0-4.642,2.032-4.775,4.531
				c-0.065,1.199,0.34,2.324,1.14,3.169c0.798,0.842,1.896,1.306,3.093,1.306c2.499,0,4.642-2.032,4.775-4.531v-0.001
				c0.065-1.198-0.34-2.323-1.14-3.168C328.528,328.242,327.43,327.778,326.233,327.778z"/>
		</g>
		<g>
			<path style="fill:#263238;" d="M313.575,187.049c0,0,0.045-4.993,2.318-9.837c3.848,3.279,7.514,7.154,7.514,7.154
				s22.562,1.714,26.432,3.204c-0.819,2.757-1.411,5.44-1.411,5.44L313.575,187.049z"/>
			<path style="fill:#263238;" d="M268.999,221.803c-0.136-0.478-0.379-0.938-0.637-1.424c-0.461-0.873-0.939-1.774-0.827-2.862
				c0.111-1.071,0.816-2.125,2.039-3.048c2.171-1.64,5.001-2.417,7.766-2.123c1.841,0.194,3.633,0.852,5.211,1.895
				c-0.099-1.122,0.109-2.27,0.637-3.27c1.078-2.045,3.422-3.303,5.569-2.99c0.801,0.117,1.532,0.452,2.138,0.935
				c0.002-0.16,0.009-0.319,0.018-0.479c0.112-1.856,0.793-3.311,1.916-4.096c1.453-1.013,3.378-0.9,5.886,0.349
				c0.123,0.062,0.291,0.146,0.484,0.253c-0.379-1.23-0.76-2.636-0.812-4.071c-0.069-1.905,0.744-2.906,1.44-3.411
				c1.539-1.117,3.909-0.937,5.789-0.352c-0.023-0.906,0.195-1.808,0.645-2.575c1.27-2.164,4.125-3.296,6.632-2.624l-0.275,1.035
				c-2.03-0.537-4.415,0.398-5.433,2.132c-0.425,0.724-0.584,1.607-0.459,2.465c1.164,0.588,2.261,1.653,2.138,3.086l-0.063,0.726
				l-0.673-0.275c-1.051-0.43-1.851-1.318-2.251-2.503c-0.031-0.091-0.06-0.183-0.085-0.275c-0.008-0.003-0.017-0.006-0.024-0.009
				c-1.61-0.592-3.967-0.938-5.312,0.037c-0.705,0.512-1.041,1.354-0.999,2.505c0.052,1.419,0.469,2.854,0.855,4.086
				c0.073,0.233,0.223,0.553,0.381,0.892c0.137,0.294,0.276,0.592,0.392,0.884c0.19,0.366,0.303,0.782,0.283,1.253
				c0,0.002,0,0.004,0,0.005l-1.07-0.045c0.008-0.188-0.07-0.459-0.184-0.754c-0.287-0.524-0.909-1.021-1.879-1.504
				c-2.121-1.058-3.69-1.2-4.794-0.429c-1.146,0.8-1.406,2.399-1.459,3.281c-0.035,0.583-0.018,1.168,0.052,1.746
				c0.411,0.723,0.622,1.556,0.56,2.41l-0.175,2.448l-0.861-2.299c-0.261-0.696-0.446-1.43-0.555-2.179
				c-0.527-0.823-1.401-1.441-2.401-1.587c-1.688-0.245-3.608,0.8-4.468,2.43c-0.6,1.138-0.694,2.512-0.312,3.734
				c0.19,0.164,0.376,0.336,0.558,0.513c0.265,0.258,0.472,0.73,0.353,1.134c-0.08,0.273-0.296,0.469-0.577,0.525l-0.339,0.068
				l-0.201-0.281c-0.295-0.41-0.53-0.857-0.706-1.328c-1.647-1.356-3.633-2.209-5.683-2.425c-2.495-0.265-5.05,0.434-7.009,1.912
				c-0.683,0.515-1.517,1.332-1.617,2.302c-0.079,0.765,0.304,1.486,0.708,2.252c0.272,0.514,0.554,1.046,0.721,1.632
				L268.999,221.803z"/>
			<path style="fill:#407BFF;" d="M254.016,220.584c9.359-3.577,41.354-10.284,46.691-15.985c4.073-4.35,8.86-13.105,10.899-17.009
				c0.611-1.169,1.899-1.81,3.201-1.598l32.508,5.309c1.541,0.252,2.645,1.624,2.561,3.183l-0.165,3.072l0.044,32.417l-83.512,2.263
				L254.016,220.584z"/>
			<path style="fill:#263238;" d="M250.221,230.868c0,0,2.37-8.719,3.795-10.284c1.426-1.565,37.508,3.018,40.534,11.178
				C272.563,233.216,250.221,230.868,250.221,230.868z"/>
			<path style="fill:#263238;" d="M286.825,231.986c-5.775-6.93-10.889-12.3-10.565-15.538c0.323-3.238,3.547-4.157,8.562-5.834
				c5.015-1.677,14.584-4.674,19.216-11.828c4.633-7.154,7.628-2.571,9.018,0.671c1.391,3.242,3.121,11.655,30.2,3.801
				c-8.482,8.048-40.111,28.728-40.111,28.728H286.825z"/>
			<path style="fill:#FFFFFF;" d="M300.577,230.868c0,0,1.006-11.392,10.718-17.377c9.712-5.985,36.774-10.345,38.891-14.369
				c0.696,3.689,0.355,7.937,0.355,7.937s-25.022,10.061-24.928,24.927C312.2,231.986,300.577,230.868,300.577,230.868z"/>
			<path style="fill:#407BFF;" d="M248.388,232.671c-0.208,0.973,0.396,1.881,1.363,2.024c5.005,0.742,20.847,2.88,37.109,2.88
				h62.409c0.969,0,1.797-0.785,1.849-1.754l0.345-6.4c0.055-1.024-0.767-1.831-1.793-1.749c-9.815,0.787-56.057,4.175-98.915,1.922
				c-0.772-0.041-1.522,0.425-1.805,1.161C248.69,231.429,248.511,232.095,248.388,232.671z"/>
			<path style="fill:#FFFFFF;" d="M281.856,230.851c-10.212,0-20.781-0.214-31.129-0.758c-0.275-0.015-0.487-0.25-0.473-0.525
				c0.015-0.275,0.262-0.51,0.525-0.473c43.023,2.261,89.89-1.204,98.849-1.921c0.277-0.021,0.517,0.183,0.538,0.458
				c0.023,0.275-0.183,0.517-0.458,0.538C342.894,228.716,314.164,230.851,281.856,230.851z"/>
			<path style="fill:#263238;" d="M349.269,238.246h-62.409c-16.435,0-32.634-2.21-37.207-2.888
				c-0.643-0.095-1.196-0.436-1.561-0.962c-0.374-0.539-0.502-1.202-0.36-1.866l1.313,0.281c-0.064,0.298-0.011,0.589,0.15,0.821
				c0.15,0.217,0.383,0.358,0.655,0.399c4.55,0.674,20.667,2.872,37.01,2.872h62.409c0.617,0,1.146-0.502,1.179-1.119l1.34,0.072
				C351.717,237.174,350.587,238.246,349.269,238.246z"/>
			
				<rect x="325.173" y="183.631" transform="matrix(0.4275 -0.904 0.904 0.4275 10.7329 405.9135)" style="fill:#263238;" width="1.342" height="21.704"/>
		</g>
		<g>
			<polygon style="fill:#407BFF;" points="290.464,249.106 301.458,258.52 313.465,249.106 			"/>
		</g>
		<g>
			
				<ellipse transform="matrix(0.7165 -0.6975 0.6975 0.7165 -176.8956 311.8505)" style="fill:#407BFF;" cx="295.264" cy="373.584" rx="21.51" ry="20.383"/>
			<g>
				<path style="fill:#FFFFFF;" d="M280.787,372.56c0,0,8.544,4.942,12.039,11.309c2.922-4.968,7.291-11.88,17.775-19.645
					c-12.719,5.121-17.432,13.272-17.432,13.272S288.717,373.397,280.787,372.56z"/>
			</g>
		</g>
	</g>
</g>
</svg>
