<?xml version="1.0" encoding="utf-8"?>
<!-- Generator: Adobe Illustrator 27.5.0, SVG Export Plug-In . SVG Version: 6.00 Build 0)  -->
<svg version="1.1" xmlns="http://www.w3.org/2000/svg" xmlns:xlink="http://www.w3.org/1999/xlink" x="0px" y="0px"
	 viewBox="0 0 750 500" style="enable-background:new 0 0 750 500;" xml:space="preserve">
<g id="BACKGROUND">
	<rect x="0.5" y="0" style="fill:#FFFFFF;" width="749" height="500"/>
</g>
<g id="OBJECTS">
	<g>
		<linearGradient id="SVGID_1_" gradientUnits="userSpaceOnUse" x1="583.727" y1="132.9958" x2="423.646" y2="235.2161">
			<stop  offset="3.113500e-04" style="stop-color:#FFFFFF;stop-opacity:0"/>
			<stop  offset="0.4769" style="stop-color:#F9F9F9;stop-opacity:0.94"/>
			<stop  offset="0.5364" style="stop-color:#F8F8F8;stop-opacity:0.9468"/>
			<stop  offset="1" style="stop-color:#F5F5F5"/>
		</linearGradient>
		<path style="opacity:0.6;fill:url(#SVGID_1_);" d="M174.19,429.058h89.213c48.633-8.611,84.805-19.714,116.459-0.722
			c0.401,0.241,0.826,0.481,1.262,0.722h202.469c40.232-15.782,74.014-43.96,87.358-90.934
			c42.204-148.581-33.615-216.14-135.28-189.337c-66.973,17.657-86.82-95.833-191.701-123.155c0,0-60.679-19.566-102.339,31.886
			c-37.365,46.148,19.447,127.354-45.339,149.012C155.76,220.08,85.822,230.723,88.219,307.556
			C90.043,366.008,126.09,412.816,174.19,429.058z"/>
		<g>
			<g>
				<g>
					<defs>
						<path id="SVGID_00000076585034361443240000000013373802941778985856_" d="M220.353,317.206
							c-5.935,3.167-11.634-0.981-18.136-2.958c-6.502-1.977-18.699,8.236-25.086,10.555c-6.388,2.319-30.407-2.1-27.027,0.772l0,0
							c0,0,9.994,7.888,13.234,23.929c1.346,6.661-3.001,19.565,4.176,26.894c4.754,4.855,11.616,7.173,12.033,13.888
							c0.418,6.714,5.342,17.77,12.524,15.591c7.183-2.18,13.86-0.091,17.311,5.857c3.451,5.948,5.98,9.45,12.947,6.898
							c6.967-2.552,8.682-3.483,16.209,4.485c7.527,7.967,17.321,11.341,28.942,3.107c11.536-8.173,27.886,10.507,39.039-12.199
							c13.478-21.407-10.343-26.707-9.438-40.816c0.912-14.212-7.097-20.78-17.83-23.008c-10.732-2.228-10.839-4.177-12.322-11.446
							c-1.483-7.27-5.791-7.585-12.665-7.402c-6.874,0.183-12.155-4.407-14.068-11.665
							C238.284,312.43,226.288,314.038,220.353,317.206z"/>
					</defs>
					<use xlink:href="#SVGID_00000076585034361443240000000013373802941778985856_"  style="overflow:visible;fill:#B3CAFE;"/>
					<clipPath id="SVGID_00000111904312669625594390000014602207170876161703_">
						<use xlink:href="#SVGID_00000076585034361443240000000013373802941778985856_"  style="overflow:visible;"/>
					</clipPath>
					<path style="clip-path:url(#SVGID_00000111904312669625594390000014602207170876161703_);fill:#467CFB;" d="M220.353,317.206
						c-5.935,3.167-11.634-0.981-18.136-2.958c-6.502-1.977-18.699,8.236-25.086,10.555c-6.388,2.319-30.407-2.1-27.027,0.772l0,0
						c0,0,9.994,7.888,13.234,23.929c1.346,6.661-3.001,19.565,4.176,26.894c4.754,4.855,11.616,7.173,12.033,13.888
						c0.418,6.714,5.342,17.77,12.524,15.591c7.183-2.18,13.86-0.091,17.311,5.857c3.451,5.948,5.98,9.45,12.947,6.898
						c6.967-2.552,8.682-3.483,16.209,4.485c7.527,7.967,17.321,11.341,28.942,3.107c11.536-8.173,27.886,10.507,39.039-12.199
						c13.478-21.407-10.343-26.707-9.438-40.816c0.912-14.212-7.097-20.78-17.83-23.008c-10.732-2.228-10.839-4.177-12.322-11.446
						c-1.483-7.27-5.791-7.585-12.665-7.402c-6.874,0.183-12.155-4.407-14.068-11.665
						C238.284,312.43,226.288,314.038,220.353,317.206z"/>
				</g>
				<g style="opacity:0.5;">
					<path style="fill:none;stroke:#182A9C;stroke-miterlimit:10;" d="M255.312,423.112c0,0,23.144-15.646,40.295-17.902
						c0,0-2.256-17.151-2.386-37.296"/>
					<path style="fill:none;stroke:#182A9C;stroke-miterlimit:10;" d="M157.669,328.556
						c68.334,27.879,107.354,56.574,167.752,98.892"/>
					<path style="fill:none;stroke:#182A9C;stroke-miterlimit:10;" d="M170.047,371.807c0,0,23.809-14.279,40.651-18.143
						c0,0-9.999-16.326-11.722-33.838"/>
					<path style="fill:none;stroke:#182A9C;stroke-miterlimit:10;" d="M189.828,398.382c0,0,20.276-16.819,50.716-28.579
						c0,0-7.14-35.12-6.865-47.757"/>
					<path style="fill:none;stroke:#182A9C;stroke-miterlimit:10;" d="M217.59,414.891c0,0,34.354-26.051,52.757-26.327
						c0,0-4.031-33.59-4.101-44.437"/>
				</g>
			</g>
			<g>
				<g>
					<defs>
						<path id="SVGID_00000158709084939364069040000010846133319194472067_" d="M248.615,361.845c0,0-30.637-6.189-27.412-23.528
							c3.224-17.339-11.789-6.156-21.932-33.863c-10.143-27.707,25.614-26.17,7.491-53.908c-18.123-27.738-5.755-43.787,5.238-43.84
							c31.286-0.151,23.686,50.127,50.926,55.068c27.24,4.941-0.864,30.109,18.399,43.212
							c19.263,13.102,32.292,10.025,18.852,35.864c-13.524,25.999,2.064,43.243-2.41,55.4
							C293.293,408.405,283.338,367.485,248.615,361.845z"/>
					</defs>
					<use xlink:href="#SVGID_00000158709084939364069040000010846133319194472067_"  style="overflow:visible;fill:#B3CAFE;"/>
					<clipPath id="SVGID_00000040546636322289447150000017333504143783844528_">
						<use xlink:href="#SVGID_00000158709084939364069040000010846133319194472067_"  style="overflow:visible;"/>
					</clipPath>
					<path style="clip-path:url(#SVGID_00000040546636322289447150000017333504143783844528_);fill:#B3CAFE;" d="M248.615,361.845
						c0,0-30.637-6.189-27.412-23.528c3.224-17.339-11.789-6.156-21.932-33.863c-10.143-27.707,25.614-26.17,7.491-53.908
						c-18.123-27.738-5.755-43.787,5.238-43.84c31.286-0.151,23.686,50.127,50.926,55.068c27.24,4.941-0.864,30.109,18.399,43.212
						c19.263,13.102,32.292,10.025,18.852,35.864c-13.524,25.999,2.064,43.243-2.41,55.4
						C293.293,408.405,283.338,367.485,248.615,361.845z"/>
				</g>
				<path style="opacity:0.4;fill:none;stroke:#182A9C;stroke-miterlimit:10;" d="M216.125,222.53
					c0,0,67.142,158.044,98.183,201.647"/>
			</g>
			<g>
				<g>
					<defs>
						<path id="SVGID_00000139269479114417268400000010806833533178733718_" d="M483.524,376.404c0,0,5.132-30.831,22.572-28.205
							c17.44,2.627,5.747-11.993,33.09-23.083c27.342-11.09,27.034,24.7,54.133,5.634c27.099-19.066,43.563-7.256,43.994,3.729
							c1.226,31.263-49.283,25.394-53.285,52.789c-4.002,27.394-30.121,0.171-42.554,19.873s-8.91,32.618-35.195,20.073
							c-26.448-12.622-43.147,3.549-55.45-0.505C438.527,422.656,479.08,411.3,483.524,376.404z"/>
					</defs>
					<use xlink:href="#SVGID_00000139269479114417268400000010806833533178733718_"  style="overflow:visible;fill:#B3CAFE;"/>
					<clipPath id="SVGID_00000111887245751036830010000003664035431164372397_">
						<use xlink:href="#SVGID_00000139269479114417268400000010806833533178733718_"  style="overflow:visible;"/>
					</clipPath>
					<path style="clip-path:url(#SVGID_00000111887245751036830010000003664035431164372397_);fill:#B3CAFE;" d="M483.524,376.404
						c0,0,5.132-30.831,22.572-28.205c17.44,2.627,5.747-11.993,33.09-23.083c27.342-11.09,27.034,24.7,54.133,5.634
						c27.099-19.066,43.563-7.256,43.994,3.729c1.226,31.263-49.283,25.394-53.285,52.789c-4.002,27.394-30.121,0.171-42.554,19.873
						s-8.91,32.618-35.195,20.073c-26.448-12.622-43.147,3.549-55.45-0.505C438.527,422.656,479.08,411.3,483.524,376.404z"/>
				</g>
				<path style="opacity:0.4;fill:none;stroke:#182A9C;stroke-miterlimit:10;" d="M621.641,339.147
					c0,0-117.133,54.251-174.101,89.366"/>
			</g>
			<g>
				<polygon style="fill:#283034;" points="107.406,429.173 174.305,428.687 241.203,428.408 375,428.175 508.797,428.404 
					575.695,428.684 642.594,429.173 575.695,429.663 508.797,429.943 375,430.172 241.203,429.939 174.305,429.66 				"/>
			</g>
			<g>
				<path style="fill:none;stroke:#283034;stroke-width:2;stroke-linecap:round;stroke-miterlimit:10;" d="M174.56,287.128
					c2.518,0.83,1.265,4.629,3.782,5.46c2.518,0.831,3.771-2.968,6.29-2.137c2.517,0.83,1.264,4.629,3.781,5.459
					c2.519,0.831,3.772-2.968,6.292-2.137c2.521,0.832,1.268,4.63,3.789,5.462c2.521,0.832,3.774-2.967,6.295-2.135"/>
			</g>
			<g>
				<path style="fill:none;stroke:#283034;stroke-width:2;stroke-linecap:round;stroke-miterlimit:10;" d="M481.072,153.76
					c2.21-1.465,4.42,1.869,6.63,0.405c2.209-1.464-0.001-4.798,2.209-6.263c2.21-1.464,4.419,1.87,6.629,0.405
					c2.212-1.466,0.002-4.8,2.213-6.266c2.213-1.467,4.423,1.867,6.636,0.401c2.213-1.467,0.003-4.801,2.216-6.268"/>
			</g>
			<path style="fill:none;stroke:#283034;stroke-width:2;stroke-linecap:round;stroke-miterlimit:10;" d="M573.512,244.317
				c0,3.803-3.083,6.885-6.885,6.885c-3.803,0-6.885-3.083-6.885-6.885s3.083-6.885,6.885-6.885
				C570.429,237.432,573.512,240.514,573.512,244.317z"/>
			<path style="fill:none;stroke:#283034;stroke-width:2;stroke-linecap:round;stroke-miterlimit:10;" d="M290.419,88.732
				c0,1.968-1.596,3.564-3.564,3.564c-1.969,0-3.564-1.596-3.564-3.564c0-1.968,1.596-3.564,3.564-3.564
				C288.823,85.168,290.419,86.764,290.419,88.732z"/>
			<g>
				<path style="fill:#365CCC;" d="M470.474,421.431c0,0,33.401,0.266,46.47-24.272c13.07-24.538,2.632-25.075,20.702-40.206
					s17.797-32.874,21.229-50.133c0,0-21.718,15.751-46.885,25.391c-20.684,7.922-47.665,24.087-56.598,41.688
					c-11.402,22.467-5.902,54.889-5.902,54.889L470.474,421.431z"/>
				<path style="fill:none;stroke:#182A9C;stroke-width:0.75;stroke-miterlimit:10;" d="M448.753,422.772
					c0,0,38.355-19.057,57.473-50.91c19.118-31.853,41.237-45.758,41.237-45.758"/>
			</g>
			<path style="fill:none;stroke:#365BD2;stroke-width:2;stroke-linecap:round;stroke-linejoin:round;stroke-miterlimit:10;" d="
				M556.615,418.128c-3.422-0.177-3.142-5.583-6.563-5.76c-3.422-0.177-3.701,5.229-7.123,5.052
				c-3.422-0.177-3.143-5.583-6.565-5.76c-3.424-0.177-3.703,5.229-7.127,5.052"/>
			<path style="fill:#455862;" d="M448.352,428.513H301.648c-6.918,0-12.526-5.608-12.526-12.526V118.732
				c0-6.918,5.608-12.526,12.526-12.526h146.705c6.918,0,12.526,5.608,12.526,12.526v297.255
				C460.878,422.905,455.27,428.513,448.352,428.513z"/>
			<g>
				<rect x="297.286" y="126.692" style="fill:#EAEAE8;" width="155.427" height="274.246"/>
			</g>
			<path style="fill:#263138;" d="M390.235,420.515h-30.47c-3.064,0-5.57-2.507-5.57-5.57v-3.416c0-3.064,2.507-5.57,5.57-5.57
				h30.47c3.063,0,5.57,2.507,5.57,5.57v3.416C395.805,418.009,393.298,420.515,390.235,420.515z"/>
			<path style="fill:#263138;" d="M408.667,117.561h-67.333c-0.682,0-1.24-0.558-1.24-1.239l0,0c0-0.682,0.558-1.239,1.24-1.239
				h67.333c0.682,0,1.24,0.558,1.24,1.239l0,0C409.906,117.003,409.348,117.561,408.667,117.561z"/>
			<g>
				<circle style="fill:#467CFB;" cx="306.506" cy="140.253" r="2.562"/>
				
					<text transform="matrix(1 0 0 1 310.4863 143.479)" style="fill:#263138; font-family:'Montserrat-BoldItalic'; font-size:10.0625px;">LIVE</text>
			</g>
			<path style="fill:#467CFB;" d="M439.174,394.923H310.826c-4.75,0-8.602-3.851-8.602-8.602v-1.117c0-4.75,3.851-8.602,8.602-8.602
				h128.347c4.751,0,8.602,3.851,8.602,8.602v1.117C447.775,391.072,443.924,394.923,439.174,394.923z"/>
			<g>
				<polygon style="fill:#182A9C;" points="312.059,383.293 312.059,389.965 316.559,386.435 				"/>
				
					<line style="opacity:0.5;fill:none;stroke:#182A9C;stroke-miterlimit:10;" x1="368.01" y1="386.629" x2="437.941" y2="386.629"/>
				<line style="fill:none;stroke:#182A9C;stroke-miterlimit:10;" x1="324.217" y1="386.629" x2="368.01" y2="386.629"/>
				<path style="fill:#182A9C;" d="M369.647,386.629c0,0.904-0.733,1.637-1.637,1.637c-0.904,0-1.637-0.733-1.637-1.637
					c0-0.904,0.733-1.637,1.637-1.637C368.914,384.992,369.647,385.725,369.647,386.629z"/>
			</g>
			<g>
				
					<ellipse transform="matrix(0.7071 -0.7071 0.7071 0.7071 -83.6081 226.4704)" style="fill:#D1D1D1;" cx="231.57" cy="214.159" rx="72.189" ry="72.189"/>
				<path style="fill:#D1D1D1;" d="M267.445,259.704c1.462-0.55,38.088,18.019,38.088,18.019l-23.471-41.629L267.445,259.704z"/>
				<g>
					<defs>
						
							<ellipse id="SVGID_00000177478679694853332620000003337977240329277602_" transform="matrix(0.7071 -0.7071 0.7071 0.7071 -83.6081 226.4704)" cx="231.57" cy="214.159" rx="72.189" ry="72.189"/>
					</defs>
					<clipPath id="SVGID_00000047041443867911554730000007976159245057471141_">
						<use xlink:href="#SVGID_00000177478679694853332620000003337977240329277602_"  style="overflow:visible;"/>
					</clipPath>
					<g style="clip-path:url(#SVGID_00000047041443867911554730000007976159245057471141_);">
						<path style="fill:#467CFB;" d="M203.684,201.965c0,0-16.221,8.76-20.568,17.225s-7.445,66.851-7.445,66.851h112.909
							c0,0-1.279-60.944-4.202-66.608s-19.782-17.468-19.782-17.468H203.684z"/>
						<path style="fill:#315188;" d="M232.459,235.855l38.364-29.291c-3.474-2.671-6.228-4.6-6.228-4.6h-60.91
							c0,0-3.339,1.805-7.391,4.564C204.049,214.374,223.671,233.539,232.459,235.855z"/>
						<g>
							<defs>
								<path id="SVGID_00000172398251082717625230000012379716174170261921_" d="M222.362,193.56
									c4.397-4.397,5.136-22.816,5.136-22.816h13.282c0,0,0.74,18.419,5.137,22.816c4.397,4.397,18.678,8.405,18.678,8.405
									l-31.7,24.203c-8.213-2.165-29.21-24.203-29.21-24.203S217.965,197.957,222.362,193.56z"/>
							</defs>
							
								<linearGradient id="SVGID_00000103975475138468866450000008193639295407560888_" gradientUnits="userSpaceOnUse" x1="836.3533" y1="183.8925" x2="833.8143" y2="200.2144" gradientTransform="matrix(-1 0 0 1 1067.6813 0)">
								<stop  offset="0" style="stop-color:#8C5D4A"/>
								<stop  offset="1" style="stop-color:#B78776"/>
							</linearGradient>
							
								<use xlink:href="#SVGID_00000172398251082717625230000012379716174170261921_"  style="overflow:visible;fill:url(#SVGID_00000103975475138468866450000008193639295407560888_);"/>
							<clipPath id="SVGID_00000013909122679266489470000006227547551997366945_">
								<use xlink:href="#SVGID_00000172398251082717625230000012379716174170261921_"  style="overflow:visible;"/>
							</clipPath>
						</g>
						<g>
							<defs>
								<path id="SVGID_00000145776897512772128300000014252872990481375118_" d="M222.362,193.56
									c4.397-4.397,5.136-22.816,5.136-22.816h13.282c0,0,0.74,18.419,5.137,22.816c4.397,4.397,18.678,8.405,18.678,8.405
									l-31.7,24.203c-8.213-2.165-29.21-24.203-29.21-24.203S217.965,197.957,222.362,193.56z"/>
							</defs>
							
								<linearGradient id="SVGID_00000119812157464057779340000008489618119086696852_" gradientUnits="userSpaceOnUse" x1="836.3533" y1="183.8925" x2="833.8143" y2="200.2144" gradientTransform="matrix(-1 0 0 1 1067.6813 0)">
								<stop  offset="0" style="stop-color:#8C5D4A"/>
								<stop  offset="1" style="stop-color:#B78776"/>
							</linearGradient>
							
								<use xlink:href="#SVGID_00000145776897512772128300000014252872990481375118_"  style="overflow:visible;fill:url(#SVGID_00000119812157464057779340000008489618119086696852_);"/>
							<clipPath id="SVGID_00000147898954312123258150000010287195062183497891_">
								<use xlink:href="#SVGID_00000145776897512772128300000014252872990481375118_"  style="overflow:visible;"/>
							</clipPath>
						</g>
						<path style="fill:#2C61BF;" d="M199.717,285.203c0,0-3.165-14.184-2.921-14.549c0.244-0.365,3.04,2.923,2.921,3.289
							c-0.119,0.365-1.335-9.379,0.673-9.745c2.009-0.366,0,16.566,0,16.566s3.349-4.734,3.836-4.681
							C204.714,276.135,202.151,283.551,199.717,285.203z"/>
						<path style="fill:#2C61BF;" d="M266.772,285.203c0,0-3.165-14.184-2.921-14.549c0.244-0.365,3.04,2.923,2.921,3.289
							c-0.119,0.365-1.335-9.379,0.673-9.745c2.009-0.366,0,16.566,0,16.566s3.349-4.734,3.836-4.681
							C271.768,276.135,269.206,283.551,266.772,285.203z"/>
					</g>
				</g>
				<g>
					
						<linearGradient id="SVGID_00000031185534780769650110000002826083590672444845_" gradientUnits="userSpaceOnUse" x1="799.6343" y1="159.6244" x2="810.5644" y2="159.5268" gradientTransform="matrix(-1 0 0 1 1067.6813 0)">
						<stop  offset="0.3194" style="stop-color:#B78776"/>
						<stop  offset="1" style="stop-color:#8C5D4A"/>
					</linearGradient>
					<path style="fill:url(#SVGID_00000031185534780769650110000002826083590672444845_);" d="M253.396,156.509
						c0,0,7.025-5.825,12.406-3.018c5.381,2.808-0.213,14.873-10.3,12.61C245.228,163.798,253.396,156.509,253.396,156.509z"/>
					
						<linearGradient id="SVGID_00000122714239591941127440000008109317117716505787_" gradientUnits="userSpaceOnUse" x1="832.2274" y1="159.6244" x2="843.1575" y2="159.5268" gradientTransform="matrix(1 0 0 1 -631.996 0)">
						<stop  offset="0.3194" style="stop-color:#B78776"/>
						<stop  offset="1" style="stop-color:#8C5D4A"/>
					</linearGradient>
					<path style="fill:url(#SVGID_00000122714239591941127440000008109317117716505787_);" d="M214.883,156.509
						c0,0-7.025-5.825-12.406-3.018c-5.381,2.808,0.213,14.873,10.3,12.61C223.05,163.798,214.883,156.509,214.883,156.509z"/>
				</g>
				<path style="fill:#B78776;" d="M208.871,160.253v-12.774c0-13.955,11.313-25.268,25.268-25.268h0h0
					c13.955,0,25.268,11.313,25.268,25.268v12.774c0,0,0.468,27.7-25.268,30.039C208.403,187.952,208.871,160.253,208.871,160.253z"
					/>
				<g>
					<path style="fill:#283034;" d="M232.063,169.748c-0.556-0.001-1.176-0.092-1.589-0.423c-0.313-0.251-0.478-0.616-0.478-1.054
						c0.002-1.309,1.056-1.731,1.755-2.01c0.29-0.116,0.619-0.248,0.679-0.377c0.2-0.431,0.217-3.472,0.181-5.287
						c-0.003-0.156,0.121-0.285,0.277-0.288c0.188-0.003,0.285,0.121,0.288,0.277c0.016,0.806,0.08,4.86-0.233,5.535
						c-0.155,0.333-0.538,0.487-0.983,0.665c-0.687,0.275-1.398,0.559-1.399,1.486c0,0.268,0.087,0.468,0.266,0.612
						c0.566,0.455,1.897,0.287,2.362,0.182c0.154-0.033,0.303,0.063,0.337,0.214c0.034,0.152-0.062,0.304-0.214,0.338
						C233.27,169.626,232.71,169.749,232.063,169.748z"/>
				</g>
				<g>
					<path style="fill:#283034;" d="M214.985,153.019c-0.385-0.886,5.775-6.182,9.935-4c3.678,1.928-3.403,3.548-6.982,4.222
						C214.359,153.915,214.985,153.019,214.985,153.019z"/>
					<path style="fill:#283034;" d="M253.292,152.778c0.561-0.787-4.363-7.248-8.886-5.98c-3.998,1.121,2.59,4.178,5.951,5.582
						C253.718,153.784,253.292,152.778,253.292,152.778z"/>
				</g>
				<path style="fill:#F6FCF7;" d="M227.365,176.953c-0.535-0.925,0.302-2.04,1.343-1.801c1.636,0.374,3.745,1.235,4.825,1.297
					c3.155,0.183,4.052-1.007,6.183-1.415c1.099-0.21,1.749,0.958,1.211,1.939c-1.04,1.896-3.496,3.432-7.15,3.487
					C230.2,180.516,228.32,178.607,227.365,176.953z"/>
				<g>
					<path style="fill:#283034;" d="M244.102,158.313c0,1.718,1.008,3.111,2.252,3.111c1.244,0,2.252-1.393,2.252-3.111
						c0-1.718-1.008-3.111-2.252-3.111C245.11,155.202,244.102,156.594,244.102,158.313z"/>
					<path style="fill:#283034;" d="M220.176,158.313c0,1.718,1.008,3.111,2.252,3.111c1.244,0,2.252-1.393,2.252-3.111
						c0-1.718-1.008-3.111-2.252-3.111C221.185,155.202,220.176,156.594,220.176,158.313z"/>
				</g>
				<path style="fill:#283034;" d="M208.87,157.879c0,0-5.186-19.009,2.147-28.615c5.249-6.875,12.699-0.833,11.412,4.659
					C220.567,141.868,209.007,147.85,208.87,157.879z"/>
				<path style="fill:#283034;" d="M259.298,157.879c0,0,5.186-19.009-2.147-28.615c-5.248-6.875-12.698-0.833-11.412,4.659
					C247.602,141.868,259.161,147.85,259.298,157.879z"/>
				<g>
					<path style="opacity:0.5;fill:#B78776;" d="M221.652,167.882c0,2.023-1.64,3.663-3.663,3.663c-2.023,0-3.663-1.64-3.663-3.663
						c0-2.023,1.64-3.663,3.663-3.663C220.012,164.219,221.652,165.859,221.652,167.882z"/>
					<path style="opacity:0.5;fill:#B78776;" d="M253.952,167.882c0,2.023-1.64,3.663-3.663,3.663s-3.663-1.64-3.663-3.663
						c0-2.023,1.64-3.663,3.663-3.663S253.952,165.859,253.952,167.882z"/>
				</g>
				<g>
					<path style="fill:#155BCC;" d="M293.734,126.816l-54.518,9.705c-2.19,0.695-4.691,0.615-6.997-0.225l-55.203-25.207
						c-1.777-0.646-1.801-2.803-0.036-3.167l57.545-10.121c1.716-0.353,3.564-0.264,5.328,0.256l53.507,25.599
						C295.139,124.181,295.388,126.291,293.734,126.816z"/>
					<path style="fill:#467CFB;" d="M177.016,111.089l0.152,0.069l57.134-10.049c1.716-0.353,3.564-0.264,5.328,0.256l53.443,25.568
						l0.661-0.118c1.654-0.525,1.405-2.635-0.374-3.16l-53.507-25.599c-1.764-0.521-3.612-0.609-5.328-0.256l-57.545,10.121
						C175.216,108.285,175.24,110.442,177.016,111.089z"/>
					<path style="fill:#467CFB;" d="M239.65,98.01c-1.703-0.469-3.474-0.549-5.125-0.209l-57.545,10.121
						c-1.765,0.363-1.741,2.52,0.036,3.167l0.152,0.069l57.134-10.049c1.651-0.34,3.422-0.26,5.125,0.21L239.65,98.01z"/>
					<path style="fill:#467CFB;" d="M208.676,115.166l-2.075,21.224c0,0,12.38,5.266,31.914,6.584
						c19.534,1.318,23.078-2.294,23.078-2.294l0.895-13.259l0.399-5.908C238.38,103.243,208.676,115.166,208.676,115.166z"/>
					<line style="fill:none;stroke:#E0AC19;stroke-miterlimit:10;" x1="189.048" y1="105.799" x2="184.947" y2="137.121"/>
					<path style="fill:#E0AC19;" d="M185.164,135.319c0,0-1.176-0.377-1.688,0.151c-0.511,0.527-0.459,1.681,0.028,1.895
						c0.487,0.214,2.227,0.957,2.871,0.499c0.645-0.458,0.44-1.364,0.409-1.583C186.706,135.708,185.164,135.319,185.164,135.319z"
						/>
					<path style="fill:#E0AC19;" d="M183.769,136.363c0,0-3.873,14.699-3.498,15.277c0.376,0.579,0.376,0.579,0.376,0.579
						s-0.982,4.302-1.194,5.389c-0.212,1.087,0.495,1.896,1.176-1.033c0.682-2.928-1.853,7.984-1.441,8.038
						c0.411,0.054,0.611,0.604,1.279-0.795c0.668-1.399,2.526-11.511,2.526-11.511s-0.033,1.52,0.449,1.552s2.54-17.348,2.54-17.348
						L183.769,136.363z"/>
				</g>
			</g>
			<rect x="303.759" y="172.508" style="fill:#E0E0E0;" width="144.017" height="91.306"/>
			<rect x="303.759" y="274.061" style="fill:#EBEBEB;" width="105.891" height="11.011"/>
			<rect x="303.759" y="339.741" style="fill:#EBEBEB;" width="105.891" height="11.011"/>
			<rect x="334.111" y="356.792" style="fill:#EBEBEB;" width="105.891" height="11.011"/>
			<g>
				<path style="fill:#467CFB;" d="M408.221,330.923H282.753c-4.583,0-8.298-3.715-8.298-8.298v-16.319l-10.786-10.123h144.552
					c4.583,0,8.298,3.715,8.298,8.298v18.145C416.519,327.208,412.804,330.923,408.221,330.923z"/>
				<g>
					<rect x="290.664" y="306.161" style="fill:#92B6FF;" width="116.34" height="2.375"/>
					<rect x="285.938" y="312.365" style="fill:#92B6FF;" width="112.549" height="2.375"/>
					<rect x="300.522" y="318.569" style="fill:#92B6FF;" width="107.104" height="2.375"/>
				</g>
			</g>
			<g>
				<path style="fill:#467CFB;" d="M324.857,256.725h97.681c4.583,0,8.298-3.715,8.298-8.298v-16.319l10.786-10.123H324.857
					c-4.583,0-8.298,3.715-8.298,8.298v18.145C316.559,253.01,320.274,256.725,324.857,256.725z"/>
				<g>
					
						<rect x="326.073" y="231.963" transform="matrix(-1 -1.224647e-16 1.224647e-16 -1 740.6994 466.3018)" style="fill:#92B6FF;" width="88.553" height="2.375"/>
					
						<rect x="334.59" y="238.167" transform="matrix(-1 -1.224647e-16 1.224647e-16 -1 753.9428 478.7092)" style="fill:#92B6FF;" width="84.762" height="2.375"/>
					
						<rect x="325.451" y="244.37" transform="matrix(-1 -1.224647e-16 1.224647e-16 -1 730.2188 491.1164)" style="fill:#92B6FF;" width="79.317" height="2.375"/>
				</g>
			</g>
			<g>
				<path style="fill:#467CFB;" d="M423.881,213.318H326.2c-4.583,0-8.298-3.715-8.298-8.298V188.7l-10.786-10.123h116.765
					c4.583,0,8.298,3.715,8.298,8.298v18.145C432.178,209.602,428.463,213.318,423.881,213.318z"/>
				<g>
					<rect x="334.111" y="188.556" style="fill:#92B6FF;" width="88.553" height="2.375"/>
					<rect x="329.385" y="194.76" style="fill:#92B6FF;" width="84.762" height="2.375"/>
					<rect x="343.97" y="200.963" style="fill:#92B6FF;" width="79.317" height="2.375"/>
				</g>
			</g>
			<rect x="303.759" y="155.202" style="fill:#EBEBEB;" width="144.017" height="12.137"/>
			<g>
				<g>
					<defs>
						<path id="SVGID_00000182526340938082819960000010879005240227761082_" d="M496.671,222.385
							c-38.636,0-69.956,31.32-69.956,69.956c0,14.139,4.208,27.289,11.421,38.292l-13.14,23.306c0,0,12.52-6.348,22.985-11.391
							c12.595,12.217,29.758,19.75,48.69,19.75c38.636,0,69.956-31.32,69.956-69.956
							C566.627,253.705,535.306,222.385,496.671,222.385z"/>
					</defs>
					<clipPath id="SVGID_00000015335884969535882750000010608840833070102423_">
						<use xlink:href="#SVGID_00000182526340938082819960000010879005240227761082_"  style="overflow:visible;"/>
					</clipPath>
					<path style="clip-path:url(#SVGID_00000015335884969535882750000010608840833070102423_);fill:#D1D1D1;" d="M496.671,222.385
						c-38.636,0-69.956,31.32-69.956,69.956c0,14.139,4.208,27.289,11.421,38.292l-13.14,23.306c0,0,12.52-6.348,22.985-11.391
						c12.595,12.217,29.758,19.75,48.69,19.75c38.636,0,69.956-31.32,69.956-69.956
						C566.627,253.705,535.306,222.385,496.671,222.385z"/>
					<g style="clip-path:url(#SVGID_00000015335884969535882750000010608840833070102423_);">
						<path style="fill:#467CFB;" d="M538.883,280.811c0,0,2.527,5.591,6.74,13.794c4.213,8.203,6.029,78.267,6.029,78.267
							l-111.897-12.177c0,0,4.604-60.6,7.437-66.089c2.833-5.489,25.502-15.387,25.502-15.387L538.883,280.811z"/>
						<path style="fill:#315188;" d="M503.835,312.061l-37.177-28.385c3.367-2.589,6.036-4.458,6.036-4.458h59.027
							c0,0,2.985-0.443,7.163,1.593C531.366,288.414,512.352,309.816,503.835,312.061z"/>
					</g>
				</g>
				<circle style="fill:#212A2D;" cx="493.467" cy="258.381" r="24.719"/>
				<path style="fill:#283034;" d="M496.866,211.471c0,0,4.421,0.989,5.309,1.875c0.888,0.885-0.646,4.604,2.3,5.002
					c2.946,0.398,5.448-1.638,5.69,1.018c0.242,2.656-1.372,4.25,0.323,4.913c1.695,0.664,3.309,0.31,2.946,2.036
					c-0.363,1.726-2.583,2.08-1.332,4.25c1.251,2.169,4.883,0.398,3.309,3.541c-1.574,3.143-2.583,3.099-1.614,5.135
					c0.969,2.036,3.228,2.435,1.533,4.205c-1.695,1.771-2.825,2.612-2.22,5.268c0.605,2.656,0.202,5.71-1.211,6.33
					c-1.413,0.62,2.61,5.993-0.081,5.799c-34.101-2.461-5.43,4.718-4.582,7.065s6.762,2.94,5.793,6.171
					c-0.024,0.082-0.057,0.161-0.085,0.241c4.445,0.86,8.741,2.156,12.974,3.64c0.766,0.096,1.515,0.112,2.098,0.373
					c2.967,1.328,6.653,0.734,9.312,1.81c0.929-1.047,0.807-1.012,0.982-2.538c0.537-4.696-1.754-3.57-1.269-10.652
					c0.484-7.082,5.65-9.03,1.776-12.571c-3.874-3.541-1.36-3.055-1.038-8.19c0.323-5.135-2.029-3.673-2.029-7.923
					s4.843-6.374,1.291-9.03c-3.551-2.656-0.565-3.541-3.713-6.728c-3.148-3.187-1.53-1.034-1.61-6.08s2.338-7.747-2.828-9.429
					s-9.606-3.26-12.593-2.463c-2.986,0.797-2.018,3.541-6.134,0.708c-4.116-2.833-5.973-6.728-8.394-2.567
					c-2.421,4.161-3.713-0.177-5.731,3.807C494.023,210.468,495.09,211.603,496.866,211.471z"/>
				<g>
					<defs>
						<path id="SVGID_00000045620777171146454950000002940545198396056994_" d="M513.62,271.073
							c-4.261-4.261-4.978-22.11-4.978-22.11h-12.871c0,0-0.717,17.849-4.978,22.11c-4.261,4.261-18.1,8.145-18.1,8.145
							l30.72,23.455c7.959-2.098,28.307-23.455,28.307-23.455S517.881,275.334,513.62,271.073z"/>
					</defs>
					
						<linearGradient id="SVGID_00000003811068417447657560000006399088994594075522_" gradientUnits="userSpaceOnUse" x1="667.2307" y1="261.7051" x2="664.7703" y2="277.5222" gradientTransform="matrix(1 0 0 1 -162.2996 0)">
						<stop  offset="0" style="stop-color:#8C5D4A"/>
						<stop  offset="1" style="stop-color:#B78776"/>
					</linearGradient>
					
						<use xlink:href="#SVGID_00000045620777171146454950000002940545198396056994_"  style="overflow:visible;fill:url(#SVGID_00000003811068417447657560000006399088994594075522_);"/>
					<clipPath id="SVGID_00000027593798623576933420000002134141227603428236_">
						<use xlink:href="#SVGID_00000045620777171146454950000002940545198396056994_"  style="overflow:visible;"/>
					</clipPath>
				</g>
				<g>
					<defs>
						<path id="SVGID_00000031919949613787815020000013930571193277094825_" d="M513.62,271.073
							c-4.261-4.261-4.978-22.11-4.978-22.11h-12.871c0,0-0.717,17.849-4.978,22.11c-4.261,4.261-18.1,8.145-18.1,8.145
							l30.72,23.455c7.959-2.098,28.307-23.455,28.307-23.455S517.881,275.334,513.62,271.073z"/>
					</defs>
					
						<linearGradient id="SVGID_00000166659120051080951570000009103930668442714252_" gradientUnits="userSpaceOnUse" x1="667.2307" y1="261.7051" x2="664.7703" y2="277.5222" gradientTransform="matrix(1 0 0 1 -162.2996 0)">
						<stop  offset="0" style="stop-color:#8C5D4A"/>
						<stop  offset="1" style="stop-color:#B78776"/>
					</linearGradient>
					
						<use xlink:href="#SVGID_00000031919949613787815020000013930571193277094825_"  style="overflow:visible;fill:url(#SVGID_00000166659120051080951570000009103930668442714252_);"/>
					<clipPath id="SVGID_00000021806925296765923950000001389174565836188332_">
						<use xlink:href="#SVGID_00000031919949613787815020000013930571193277094825_"  style="overflow:visible;"/>
					</clipPath>
				</g>
				<g>
					
						<linearGradient id="SVGID_00000023274551182459016140000001655719544378443178_" gradientUnits="userSpaceOnUse" x1="631.6472" y1="238.1875" x2="642.2393" y2="238.093" gradientTransform="matrix(1 0 0 1 -162.2996 0)">
						<stop  offset="0.3194" style="stop-color:#B78776"/>
						<stop  offset="1" style="stop-color:#8C5D4A"/>
					</linearGradient>
					<path style="fill:url(#SVGID_00000023274551182459016140000001655719544378443178_);" d="M483.546,235.169
						c0,0-6.807-5.645-12.022-2.924c-5.215,2.721,0.207,14.413,9.982,12.22C491.461,242.232,483.546,235.169,483.546,235.169z"/>
					
						<linearGradient id="SVGID_00000158013092192955779990000010182352314353723029_" gradientUnits="userSpaceOnUse" x1="1002.3117" y1="238.1875" x2="1012.9037" y2="238.093" gradientTransform="matrix(-1 0 0 1 1537.3776 0)">
						<stop  offset="0.3194" style="stop-color:#B78776"/>
						<stop  offset="1" style="stop-color:#8C5D4A"/>
					</linearGradient>
					<path style="fill:url(#SVGID_00000158013092192955779990000010182352314353723029_);" d="M520.868,235.169
						c0,0,6.807-5.645,12.022-2.924c5.215,2.721-0.207,14.413-9.982,12.22C512.953,242.232,520.868,235.169,520.868,235.169z"/>
				</g>
				<path style="fill:#B78776;" d="M526.694,238.796v-12.379c0-13.524-10.963-24.487-24.487-24.487h0h0
					c-13.524,0-24.487,10.963-24.487,24.487v12.379c0,0-0.454,26.843,24.487,29.11C527.147,265.639,526.694,238.796,526.694,238.796
					z"/>
				<g>
					<path style="fill:#283034;" d="M504.218,247.998c0.539-0.001,1.14-0.089,1.54-0.41c0.303-0.243,0.464-0.597,0.463-1.021
						c-0.002-1.269-1.024-1.678-1.7-1.948c-0.282-0.113-0.6-0.241-0.658-0.366c-0.194-0.417-0.21-3.364-0.176-5.123
						c0.003-0.151-0.117-0.276-0.268-0.279c-0.182-0.003-0.276,0.117-0.279,0.268c-0.016,0.781-0.078,4.71,0.226,5.364
						c0.15,0.323,0.522,0.472,0.952,0.644c0.666,0.267,1.355,0.542,1.356,1.44c0,0.259-0.084,0.454-0.258,0.593
						c-0.549,0.441-1.839,0.278-2.289,0.176c-0.15-0.032-0.294,0.061-0.327,0.208c-0.033,0.148,0.06,0.294,0.207,0.327
						C503.049,247.88,503.591,247.999,504.218,247.998z"/>
				</g>
				<g>
					<path style="fill:#283034;" d="M520.769,231.786c0.373-0.859-5.596-5.99-9.628-3.876c-3.564,1.868,3.298,3.438,6.766,4.091
						C521.375,232.654,520.769,231.786,520.769,231.786z"/>
					<path style="fill:#283034;" d="M483.646,231.553c-0.544-0.762,4.228-7.024,8.611-5.795c3.875,1.086-2.51,4.049-5.767,5.409
						C483.234,232.528,483.646,231.553,483.646,231.553z"/>
				</g>
				<path style="fill:#F6FCF7;" d="M508.771,254.981c0.518-0.897-0.293-1.977-1.302-1.746c-1.586,0.363-3.629,1.197-4.675,1.257
					c-3.058,0.177-3.927-0.976-5.991-1.371c-1.065-0.204-1.695,0.928-1.173,1.879c1.008,1.838,3.388,3.326,6.928,3.38
					C506.024,258.433,507.845,256.583,508.771,254.981z"/>
				<g>
					<path style="fill:#283034;" d="M492.552,236.916c0,1.665-0.977,3.015-2.183,3.015c-1.206,0-2.183-1.35-2.183-3.015
						c0-1.665,0.977-3.015,2.183-3.015C491.575,233.901,492.552,235.251,492.552,236.916z"/>
					<path style="fill:#283034;" d="M515.738,236.916c0,1.665-0.977,3.015-2.183,3.015c-1.206,0-2.183-1.35-2.183-3.015
						c0-1.665,0.977-3.015,2.183-3.015C514.76,233.901,515.738,235.251,515.738,236.916z"/>
				</g>
				<g>
					<path style="opacity:0.5;fill:#B78776;" d="M514.308,246.19c0,1.96,1.589,3.549,3.549,3.549s3.549-1.589,3.549-3.549
						s-1.589-3.55-3.549-3.55S514.308,244.229,514.308,246.19z"/>
					<path style="opacity:0.5;fill:#B78776;" d="M483.006,246.19c0,1.96,1.589,3.549,3.55,3.549c1.96,0,3.549-1.589,3.549-3.549
						s-1.589-3.55-3.549-3.55C484.596,242.64,483.006,244.229,483.006,246.19z"/>
				</g>
				<path style="fill:#283034;" d="M502.188,212.104c0,0-4.066,0.635-5.04,1.521c-0.974,0.885,0.708,4.604-2.523,5.002
					c-3.231,0.398-5.976-1.638-6.241,1.018c-0.266,2.656,1.505,4.249-0.354,4.913c-1.859,0.664-3.63,0.31-3.231,2.036
					c0.398,1.726,2.833,2.081,1.461,4.249c-1.372,2.169-5.356,0.398-3.63,3.541c1.726,3.143,2.833,3.099,1.771,5.135
					c-1.062,2.036-3.541,2.435-1.682,4.205c1.859,1.771,3.099,2.612,2.435,5.268c-0.664,2.656-0.221,5.71,1.328,6.33
					c1.549,0.62-1.372,3.453,0.089,5.799c1.461,2.346,0.93,4.205,0,6.551c-0.93,2.346-2.39,3.453-1.328,6.684
					c1.062,3.231,5.002,5.71,2.523,9.03c-2.479,3.32-4.338,2.789-2.39,5.268c1.948,2.479,0.027,3.615,1.68,4.677
					c3.776,2.427,0.654,4.309,0.71,5.946c0.219,6.359-8.855,0.914-11.91,3.674c-4.213,3.807-9.477,2.371-9.78-3.674
					c-0.057-1.142,2.567-1.771-1.151-4.426c-3.718-2.656-4.879-4.901-3.541-9.03c0.927-2.862,0.282-4.037-0.179-5.198
					c-2.174-5.47,1.277-1.512,0-8.499c-0.5-2.736-3.305-6.548-1.771-9.913c2.296-5.033,0.82-7.157,0.647-12.302
					c-0.118-3.52,3.13-3.022,3.13-7.271c0-4.25-1.682-6.643,0-8.329c3.331-3.337-0.004-4.702,3.449-7.89
					c3.453-3.187,2.755-2.012,2.844-7.058c0.089-5.046,2.978-6.791,6.099-7.927c5.554-2.022,2.778-7.417,6.054-6.62
					s2.213,3.541,6.728,0.708c4.515-2.833,6.551-6.728,9.207-2.567c2.656,4.161,4.072-0.177,6.286,3.807
					C506.089,210.747,504.135,212.237,502.188,212.104z"/>
				<g>
					<path style="fill:#155BCC;" d="M444.455,197.722l52.832,9.405c2.122,0.673,4.546,0.596,6.78-0.218l53.495-24.428
						c1.721-0.627,1.745-2.717,0.035-3.069l-55.766-9.808c-1.663-0.342-3.454-0.256-5.163,0.249l-51.852,24.807
						C443.094,195.168,442.852,197.213,444.455,197.722z"/>
					<path style="fill:#467CFB;" d="M557.563,182.481l-0.147,0.067l-55.367-9.738c-1.663-0.342-3.454-0.256-5.163,0.248
						l-51.791,24.778l-0.64-0.114c-1.603-0.509-1.362-2.554,0.362-3.063l51.852-24.807c1.709-0.504,3.5-0.59,5.163-0.249
						l55.766,9.808C559.308,179.764,559.285,181.854,557.563,182.481z"/>
					<path style="fill:#467CFB;" d="M496.866,169.807c1.65-0.454,3.366-0.532,4.966-0.203l55.766,9.808
						c1.71,0.352,1.687,2.442-0.035,3.069l-0.147,0.067l-55.367-9.738c-1.6-0.329-3.316-0.252-4.966,0.203L496.866,169.807z"/>
					<path style="fill:#467CFB;" d="M526.882,186.432l2.01,20.568c0,0-11.997,5.103-30.927,6.381
						c-18.93,1.277-22.364-2.224-22.364-2.224l-0.867-12.849l-0.386-5.725C498.097,174.878,526.882,186.432,526.882,186.432z"/>
					<line style="fill:none;stroke:#E0AC19;stroke-miterlimit:10;" x1="545.903" y1="177.355" x2="549.878" y2="207.708"/>
					<path style="fill:#E0AC19;" d="M549.667,205.962c0,0,1.14-0.365,1.635,0.146s0.445,1.629-0.027,1.837
						c-0.472,0.208-2.158,0.928-2.783,0.484c-0.625-0.444-0.426-1.322-0.397-1.535C548.173,206.339,549.667,205.962,549.667,205.962
						z"/>
					<path style="fill:#E0AC19;" d="M551.019,206.974c0,0,3.754,14.244,3.389,14.805c-0.364,0.561-0.364,0.561-0.364,0.561
						s0.951,4.169,1.157,5.223c0.205,1.053-0.479,1.837-1.14-1.001c-0.661-2.838,1.795,7.737,1.397,7.79
						c-0.399,0.052-0.592,0.585-1.239-0.771c-0.647-1.356-2.448-11.155-2.448-11.155s0.032,1.472-0.435,1.504
						c-0.467,0.031-2.462-16.811-2.462-16.811L551.019,206.974z"/>
				</g>
				<g>
					<g>
						<path style="fill:#B78776;" d="M610.827,272.086c0,0,11.42-34.53,14.837-45.479c3.417-10.948,7.527-17.919,6.148-18.895
							c-1.708-1.209-5.418,8.09-6.682,7.497c-0.404-0.19,5.338-11.21,2.944-12.547c-2.348-1.312-6.238,10.792-7.177,10.718
							c-0.938-0.074,4.426-12.717,1.99-15.352c-1.496-1.618-3.219,4.217-5.017,8.992c-1.694,4.498-2.53,7.188-3.125,7.062
							c-0.374-0.079,4.108-12.775,1.118-12.887c-1.839-0.069-5.856,17.106-11.055,24.191c-1.056,1.439-11.257,27.187-16.614,37.01
							L610.827,272.086z"/>
						<path style="fill:#B78776;" d="M609.665,223.681c0,0-1.298-12.78-4.607-14.518c-3.309-1.738,1.718,16.573-1.686,21.21
							C599.967,235.01,609.665,223.681,609.665,223.681z"/>
					</g>
					<polygon style="fill:#92B6FF;" points="595.098,236.916 590.435,249.929 621.067,270.379 625.081,258.381 					"/>
					<path style="fill:#467CFB;" d="M538.883,280.811c0,0,16.355,3.174,21.186,2.289c4.831-0.885,29.835-34.604,30.543-43.169
						l34.173,24.192c2.148,0.445-7.849,25.085-16.113,40.934c-8.15,15.631-18.237,28.842-42.046,32.268
						c-10.594,1.524-36.216,0.398-36.216,0.398L538.883,280.811z"/>
				</g>
			</g>
			<path style="fill:#DFDFDF;" d="M493.951,111.089c-6.832-2.141-10.348,5.247-10.348,5.247s-3.516-7.387-10.347-5.247
				c-2.926,0.917-4.946,4.445-2.711,9.449c1.877,4.203,5.476,7.7,13.058,11.683c7.582-3.983,11.181-7.48,13.059-11.683
				C498.897,115.534,496.878,112.006,493.951,111.089z"/>
		</g>
	</g>
</g>
</svg>
